<svg xmlns="http://www.w3.org/2000/svg" xmlns:xlink="http://www.w3.org/1999/xlink" width="2000" zoomAndPan="magnify" viewBox="0 0 1500 1499.999933" height="2000" preserveAspectRatio="xMidYMid meet" version="1.0"><defs><clipPath id="98119329b1"><path d="M 62.308594 62.308594 L 1437.808594 62.308594 L 1437.808594 1437.808594 L 62.308594 1437.808594 Z M 62.308594 62.308594 " clip-rule="nonzero"/></clipPath></defs><rect x="-150" width="1800" fill="#ffffff" y="-149.999993" height="1799.99992" fill-opacity="1"/><rect x="-150" width="1800" fill="#ffffff" y="-149.999993" height="1799.99992" fill-opacity="1"/><g clip-path="url(#98119329b1)"><path fill="#ffffff" d="M 62.308594 62.308594 L 1437.808594 62.308594 L 1437.808594 1437.808594 L 62.308594 1437.808594 Z M 62.308594 62.308594 " fill-opacity="1" fill-rule="nonzero"/></g><path fill="#000000" d="M 106.679688 106.679688 L 417.273438 106.679688 L 417.273438 151.050781 L 106.679688 151.050781 Z M 594.757812 106.679688 L 816.613281 106.679688 L 816.613281 151.050781 L 594.757812 151.050781 Z M 949.726562 106.679688 L 994.097656 106.679688 L 994.097656 151.050781 L 949.726562 151.050781 Z M 1082.839844 106.679688 L 1393.4375 106.679688 L 1393.4375 151.050781 L 1082.839844 151.050781 Z M 106.679688 151.050781 L 151.050781 151.050781 L 151.050781 195.421875 L 106.679688 195.421875 Z M 372.90625 151.050781 L 417.273438 151.050781 L 417.273438 195.421875 L 372.90625 195.421875 Z M 461.644531 151.050781 L 639.128906 151.050781 L 639.128906 195.421875 L 461.644531 195.421875 Z M 683.5 151.050781 L 994.097656 151.050781 L 994.097656 195.421875 L 683.5 195.421875 Z M 1082.839844 151.050781 L 1127.210938 151.050781 L 1127.210938 195.421875 L 1082.839844 195.421875 Z M 1349.066406 151.050781 L 1393.4375 151.050781 L 1393.4375 195.421875 L 1349.066406 195.421875 Z M 106.679688 195.421875 L 151.050781 195.421875 L 151.050781 239.792969 L 106.679688 239.792969 Z M 195.421875 195.421875 L 328.535156 195.421875 L 328.535156 239.792969 L 195.421875 239.792969 Z M 372.90625 195.421875 L 417.273438 195.421875 L 417.273438 239.792969 L 372.90625 239.792969 Z M 506.015625 195.421875 L 550.386719 195.421875 L 550.386719 239.792969 L 506.015625 239.792969 Z M 994.097656 195.421875 L 1038.46875 195.421875 L 1038.46875 239.792969 L 994.097656 239.792969 Z M 1082.839844 195.421875 L 1127.210938 195.421875 L 1127.210938 239.792969 L 1082.839844 239.792969 Z M 1171.582031 195.421875 L 1304.695312 195.421875 L 1304.695312 239.792969 L 1171.582031 239.792969 Z M 1349.066406 195.421875 L 1393.4375 195.421875 L 1393.4375 239.792969 L 1349.066406 239.792969 Z M 106.679688 239.792969 L 151.050781 239.792969 L 151.050781 284.164062 L 106.679688 284.164062 Z M 195.421875 239.792969 L 328.535156 239.792969 L 328.535156 284.164062 L 195.421875 284.164062 Z M 372.90625 239.792969 L 417.273438 239.792969 L 417.273438 284.164062 L 372.90625 284.164062 Z M 550.386719 239.792969 L 639.128906 239.792969 L 639.128906 284.164062 L 550.386719 284.164062 Z M 772.242188 239.792969 L 860.984375 239.792969 L 860.984375 284.164062 L 772.242188 284.164062 Z M 905.355469 239.792969 L 949.726562 239.792969 L 949.726562 284.164062 L 905.355469 284.164062 Z M 1082.839844 239.792969 L 1127.210938 239.792969 L 1127.210938 284.164062 L 1082.839844 284.164062 Z M 1171.582031 239.792969 L 1304.695312 239.792969 L 1304.695312 284.164062 L 1171.582031 284.164062 Z M 1349.066406 239.792969 L 1393.4375 239.792969 L 1393.4375 284.164062 L 1349.066406 284.164062 Z M 106.679688 284.164062 L 151.050781 284.164062 L 151.050781 328.535156 L 106.679688 328.535156 Z M 195.421875 284.164062 L 328.535156 284.164062 L 328.535156 328.535156 L 195.421875 328.535156 Z M 372.90625 284.164062 L 417.273438 284.164062 L 417.273438 328.535156 L 372.90625 328.535156 Z M 461.644531 284.164062 L 506.015625 284.164062 L 506.015625 328.535156 L 461.644531 328.535156 Z M 639.128906 284.164062 L 816.613281 284.164062 L 816.613281 328.535156 L 639.128906 328.535156 Z M 905.355469 284.164062 L 994.097656 284.164062 L 994.097656 328.535156 L 905.355469 328.535156 Z M 1082.839844 284.164062 L 1127.210938 284.164062 L 1127.210938 328.535156 L 1082.839844 328.535156 Z M 1171.582031 284.164062 L 1304.695312 284.164062 L 1304.695312 328.535156 L 1171.582031 328.535156 Z M 1349.066406 284.164062 L 1393.4375 284.164062 L 1393.4375 328.535156 L 1349.066406 328.535156 Z M 106.679688 328.535156 L 151.050781 328.535156 L 151.050781 372.902344 L 106.679688 372.902344 Z M 372.90625 328.535156 L 417.273438 328.535156 L 417.273438 372.902344 L 372.90625 372.902344 Z M 550.386719 328.535156 L 639.128906 328.535156 L 639.128906 372.902344 L 550.386719 372.902344 Z M 727.871094 328.535156 L 816.613281 328.535156 L 816.613281 372.902344 L 727.871094 372.902344 Z M 949.726562 328.535156 L 994.097656 328.535156 L 994.097656 372.902344 L 949.726562 372.902344 Z M 1082.839844 328.535156 L 1127.210938 328.535156 L 1127.210938 372.902344 L 1082.839844 372.902344 Z M 1349.066406 328.535156 L 1393.4375 328.535156 L 1393.4375 372.902344 L 1349.066406 372.902344 Z M 106.679688 372.902344 L 417.273438 372.902344 L 417.273438 417.273438 L 106.679688 417.273438 Z M 461.644531 372.902344 L 506.015625 372.902344 L 506.015625 417.273438 L 461.644531 417.273438 Z M 550.386719 372.902344 L 594.757812 372.902344 L 594.757812 417.273438 L 550.386719 417.273438 Z M 639.128906 372.902344 L 683.5 372.902344 L 683.5 417.273438 L 639.128906 417.273438 Z M 727.871094 372.902344 L 772.242188 372.902344 L 772.242188 417.273438 L 727.871094 417.273438 Z M 816.613281 372.902344 L 860.984375 372.902344 L 860.984375 417.273438 L 816.613281 417.273438 Z M 905.355469 372.902344 L 949.726562 372.902344 L 949.726562 417.273438 L 905.355469 417.273438 Z M 994.097656 372.902344 L 1038.46875 372.902344 L 1038.46875 417.273438 L 994.097656 417.273438 Z M 1082.839844 372.902344 L 1393.4375 372.902344 L 1393.4375 417.273438 L 1082.839844 417.273438 Z M 550.386719 417.273438 L 772.242188 417.273438 L 772.242188 461.644531 L 550.386719 461.644531 Z M 860.984375 417.273438 L 905.355469 417.273438 L 905.355469 461.644531 L 860.984375 461.644531 Z M 949.726562 417.273438 L 1038.46875 417.273438 L 1038.46875 461.644531 L 949.726562 461.644531 Z M 106.679688 461.644531 L 151.050781 461.644531 L 151.050781 506.015625 L 106.679688 506.015625 Z M 195.421875 461.644531 L 239.792969 461.644531 L 239.792969 506.015625 L 195.421875 506.015625 Z M 284.164062 461.644531 L 328.535156 461.644531 L 328.535156 506.015625 L 284.164062 506.015625 Z M 372.90625 461.644531 L 417.273438 461.644531 L 417.273438 506.015625 L 372.90625 506.015625 Z M 506.015625 461.644531 L 639.128906 461.644531 L 639.128906 506.015625 L 506.015625 506.015625 Z M 727.871094 461.644531 L 772.242188 461.644531 L 772.242188 506.015625 L 727.871094 506.015625 Z M 860.984375 461.644531 L 949.726562 461.644531 L 949.726562 506.015625 L 860.984375 506.015625 Z M 1171.582031 461.644531 L 1215.953125 461.644531 L 1215.953125 506.015625 L 1171.582031 506.015625 Z M 1304.695312 461.644531 L 1349.066406 461.644531 L 1349.066406 506.015625 L 1304.695312 506.015625 Z M 106.679688 506.015625 L 195.421875 506.015625 L 195.421875 550.386719 L 106.679688 550.386719 Z M 417.273438 506.015625 L 683.5 506.015625 L 683.5 550.386719 L 417.273438 550.386719 Z M 816.613281 506.015625 L 860.984375 506.015625 L 860.984375 550.386719 L 816.613281 550.386719 Z M 994.097656 506.015625 L 1127.210938 506.015625 L 1127.210938 550.386719 L 994.097656 550.386719 Z M 1215.953125 506.015625 L 1260.324219 506.015625 L 1260.324219 550.386719 L 1215.953125 550.386719 Z M 1349.066406 506.015625 L 1393.4375 506.015625 L 1393.4375 550.386719 L 1349.066406 550.386719 Z M 106.679688 550.386719 L 151.050781 550.386719 L 151.050781 594.757812 L 106.679688 594.757812 Z M 195.421875 550.386719 L 284.164062 550.386719 L 284.164062 594.757812 L 195.421875 594.757812 Z M 328.535156 550.386719 L 461.644531 550.386719 L 461.644531 594.757812 L 328.535156 594.757812 Z M 506.015625 550.386719 L 550.386719 550.386719 L 550.386719 594.757812 L 506.015625 594.757812 Z M 639.128906 550.386719 L 727.871094 550.386719 L 727.871094 594.757812 L 639.128906 594.757812 Z M 860.984375 550.386719 L 905.355469 550.386719 L 905.355469 594.757812 L 860.984375 594.757812 Z M 1082.839844 550.386719 L 1171.582031 550.386719 L 1171.582031 594.757812 L 1082.839844 594.757812 Z M 1260.324219 550.386719 L 1393.4375 550.386719 L 1393.4375 594.757812 L 1260.324219 594.757812 Z M 106.679688 594.757812 L 195.421875 594.757812 L 195.421875 639.128906 L 106.679688 639.128906 Z M 239.792969 594.757812 L 372.90625 594.757812 L 372.90625 639.128906 L 239.792969 639.128906 Z M 461.644531 594.757812 L 550.386719 594.757812 L 550.386719 639.128906 L 461.644531 639.128906 Z M 816.613281 594.757812 L 905.355469 594.757812 L 905.355469 639.128906 L 816.613281 639.128906 Z M 949.726562 594.757812 L 994.097656 594.757812 L 994.097656 639.128906 L 949.726562 639.128906 Z M 1127.210938 594.757812 L 1171.582031 594.757812 L 1171.582031 639.128906 L 1127.210938 639.128906 Z M 1304.695312 594.757812 L 1349.066406 594.757812 L 1349.066406 639.128906 L 1304.695312 639.128906 Z M 106.679688 639.128906 L 151.050781 639.128906 L 151.050781 683.5 L 106.679688 683.5 Z M 195.421875 639.128906 L 239.792969 639.128906 L 239.792969 683.5 L 195.421875 683.5 Z M 372.90625 639.128906 L 461.644531 639.128906 L 461.644531 683.5 L 372.90625 683.5 Z M 550.386719 639.128906 L 639.128906 639.128906 L 639.128906 683.5 L 550.386719 683.5 Z M 772.242188 639.128906 L 905.355469 639.128906 L 905.355469 683.5 L 772.242188 683.5 Z M 949.726562 639.128906 L 1171.582031 639.128906 L 1171.582031 683.5 L 949.726562 683.5 Z M 1215.953125 639.128906 L 1260.324219 639.128906 L 1260.324219 683.5 L 1215.953125 683.5 Z M 1304.695312 639.128906 L 1393.4375 639.128906 L 1393.4375 683.5 L 1304.695312 683.5 Z M 106.679688 683.5 L 151.050781 683.5 L 151.050781 727.871094 L 106.679688 727.871094 Z M 239.792969 683.5 L 328.535156 683.5 L 328.535156 727.871094 L 239.792969 727.871094 Z M 417.273438 683.5 L 461.644531 683.5 L 461.644531 727.871094 L 417.273438 727.871094 Z M 506.015625 683.5 L 594.757812 683.5 L 594.757812 727.871094 L 506.015625 727.871094 Z M 683.5 683.5 L 727.871094 683.5 L 727.871094 727.871094 L 683.5 727.871094 Z M 816.613281 683.5 L 860.984375 683.5 L 860.984375 727.871094 L 816.613281 727.871094 Z M 994.097656 683.5 L 1038.46875 683.5 L 1038.46875 727.871094 L 994.097656 727.871094 Z M 1082.839844 683.5 L 1127.210938 683.5 L 1127.210938 727.871094 L 1082.839844 727.871094 Z M 1215.953125 683.5 L 1260.324219 683.5 L 1260.324219 727.871094 L 1215.953125 727.871094 Z M 1349.066406 683.5 L 1393.4375 683.5 L 1393.4375 727.871094 L 1349.066406 727.871094 Z M 151.050781 727.871094 L 284.164062 727.871094 L 284.164062 772.242188 L 151.050781 772.242188 Z M 328.535156 727.871094 L 550.386719 727.871094 L 550.386719 772.242188 L 328.535156 772.242188 Z M 639.128906 727.871094 L 683.5 727.871094 L 683.5 772.242188 L 639.128906 772.242188 Z M 727.871094 727.871094 L 772.242188 727.871094 L 772.242188 772.242188 L 727.871094 772.242188 Z M 816.613281 727.871094 L 860.984375 727.871094 L 860.984375 772.242188 L 816.613281 772.242188 Z M 905.355469 727.871094 L 949.726562 727.871094 L 949.726562 772.242188 L 905.355469 772.242188 Z M 1038.46875 727.871094 L 1171.582031 727.871094 L 1171.582031 772.242188 L 1038.46875 772.242188 Z M 1215.953125 727.871094 L 1260.324219 727.871094 L 1260.324219 772.242188 L 1215.953125 772.242188 Z M 1304.695312 727.871094 L 1393.4375 727.871094 L 1393.4375 772.242188 L 1304.695312 772.242188 Z M 239.792969 772.242188 L 284.164062 772.242188 L 284.164062 816.613281 L 239.792969 816.613281 Z M 461.644531 772.242188 L 550.386719 772.242188 L 550.386719 816.613281 L 461.644531 816.613281 Z M 683.5 772.242188 L 772.242188 772.242188 L 772.242188 816.613281 L 683.5 816.613281 Z M 816.613281 772.242188 L 949.726562 772.242188 L 949.726562 816.613281 L 816.613281 816.613281 Z M 994.097656 772.242188 L 1038.46875 772.242188 L 1038.46875 816.613281 L 994.097656 816.613281 Z M 1082.839844 772.242188 L 1171.582031 772.242188 L 1171.582031 816.613281 L 1082.839844 816.613281 Z M 1215.953125 772.242188 L 1260.324219 772.242188 L 1260.324219 816.613281 L 1215.953125 816.613281 Z M 1304.695312 772.242188 L 1349.066406 772.242188 L 1349.066406 816.613281 L 1304.695312 816.613281 Z M 151.050781 816.613281 L 195.421875 816.613281 L 195.421875 860.984375 L 151.050781 860.984375 Z M 372.90625 816.613281 L 639.128906 816.613281 L 639.128906 860.984375 L 372.90625 860.984375 Z M 727.871094 816.613281 L 772.242188 816.613281 L 772.242188 860.984375 L 727.871094 860.984375 Z M 816.613281 816.613281 L 905.355469 816.613281 L 905.355469 860.984375 L 816.613281 860.984375 Z M 994.097656 816.613281 L 1171.582031 816.613281 L 1171.582031 860.984375 L 994.097656 860.984375 Z M 1215.953125 816.613281 L 1260.324219 816.613281 L 1260.324219 860.984375 L 1215.953125 860.984375 Z M 1304.695312 816.613281 L 1393.4375 816.613281 L 1393.4375 860.984375 L 1304.695312 860.984375 Z M 151.050781 860.984375 L 239.792969 860.984375 L 239.792969 905.355469 L 151.050781 905.355469 Z M 639.128906 860.984375 L 683.5 860.984375 L 683.5 905.355469 L 639.128906 905.355469 Z M 727.871094 860.984375 L 772.242188 860.984375 L 772.242188 905.355469 L 727.871094 905.355469 Z M 816.613281 860.984375 L 860.984375 860.984375 L 860.984375 905.355469 L 816.613281 905.355469 Z M 994.097656 860.984375 L 1127.210938 860.984375 L 1127.210938 905.355469 L 994.097656 905.355469 Z M 1215.953125 860.984375 L 1304.695312 860.984375 L 1304.695312 905.355469 L 1215.953125 905.355469 Z M 1349.066406 860.984375 L 1393.4375 860.984375 L 1393.4375 905.355469 L 1349.066406 905.355469 Z M 106.679688 905.355469 L 151.050781 905.355469 L 151.050781 949.726562 L 106.679688 949.726562 Z M 195.421875 905.355469 L 239.792969 905.355469 L 239.792969 949.726562 L 195.421875 949.726562 Z M 284.164062 905.355469 L 461.644531 905.355469 L 461.644531 949.726562 L 284.164062 949.726562 Z M 506.015625 905.355469 L 550.386719 905.355469 L 550.386719 949.726562 L 506.015625 949.726562 Z M 594.757812 905.355469 L 727.871094 905.355469 L 727.871094 949.726562 L 594.757812 949.726562 Z M 860.984375 905.355469 L 905.355469 905.355469 L 905.355469 949.726562 L 860.984375 949.726562 Z M 994.097656 905.355469 L 1038.46875 905.355469 L 1038.46875 949.726562 L 994.097656 949.726562 Z M 1082.839844 905.355469 L 1215.953125 905.355469 L 1215.953125 949.726562 L 1082.839844 949.726562 Z M 1304.695312 905.355469 L 1393.4375 905.355469 L 1393.4375 949.726562 L 1304.695312 949.726562 Z M 151.050781 949.726562 L 372.90625 949.726562 L 372.90625 994.097656 L 151.050781 994.097656 Z M 417.273438 949.726562 L 461.644531 949.726562 L 461.644531 994.097656 L 417.273438 994.097656 Z M 506.015625 949.726562 L 550.386719 949.726562 L 550.386719 994.097656 L 506.015625 994.097656 Z M 639.128906 949.726562 L 683.5 949.726562 L 683.5 994.097656 L 639.128906 994.097656 Z M 772.242188 949.726562 L 949.726562 949.726562 L 949.726562 994.097656 L 772.242188 994.097656 Z M 994.097656 949.726562 L 1038.46875 949.726562 L 1038.46875 994.097656 L 994.097656 994.097656 Z M 1127.210938 949.726562 L 1260.324219 949.726562 L 1260.324219 994.097656 L 1127.210938 994.097656 Z M 1304.695312 949.726562 L 1349.066406 949.726562 L 1349.066406 994.097656 L 1304.695312 994.097656 Z M 106.679688 994.097656 L 151.050781 994.097656 L 151.050781 1038.46875 L 106.679688 1038.46875 Z M 195.421875 994.097656 L 328.535156 994.097656 L 328.535156 1038.46875 L 195.421875 1038.46875 Z M 372.90625 994.097656 L 550.386719 994.097656 L 550.386719 1038.46875 L 372.90625 1038.46875 Z M 594.757812 994.097656 L 683.5 994.097656 L 683.5 1038.46875 L 594.757812 1038.46875 Z M 772.242188 994.097656 L 1215.953125 994.097656 L 1215.953125 1038.46875 L 772.242188 1038.46875 Z M 461.644531 1038.46875 L 506.015625 1038.46875 L 506.015625 1082.839844 L 461.644531 1082.839844 Z M 550.386719 1038.46875 L 639.128906 1038.46875 L 639.128906 1082.839844 L 550.386719 1082.839844 Z M 683.5 1038.46875 L 727.871094 1038.46875 L 727.871094 1082.839844 L 683.5 1082.839844 Z M 949.726562 1038.46875 L 1038.46875 1038.46875 L 1038.46875 1082.839844 L 949.726562 1082.839844 Z M 1171.582031 1038.46875 L 1215.953125 1038.46875 L 1215.953125 1082.839844 L 1171.582031 1082.839844 Z M 1260.324219 1038.46875 L 1393.4375 1038.46875 L 1393.4375 1082.839844 L 1260.324219 1082.839844 Z M 106.679688 1082.839844 L 417.273438 1082.839844 L 417.273438 1127.210938 L 106.679688 1127.210938 Z M 506.015625 1082.839844 L 594.757812 1082.839844 L 594.757812 1127.210938 L 506.015625 1127.210938 Z M 639.128906 1082.839844 L 683.5 1082.839844 L 683.5 1127.210938 L 639.128906 1127.210938 Z M 727.871094 1082.839844 L 772.242188 1082.839844 L 772.242188 1127.210938 L 727.871094 1127.210938 Z M 816.613281 1082.839844 L 905.355469 1082.839844 L 905.355469 1127.210938 L 816.613281 1127.210938 Z M 949.726562 1082.839844 L 1038.46875 1082.839844 L 1038.46875 1127.210938 L 949.726562 1127.210938 Z M 1082.839844 1082.839844 L 1127.210938 1082.839844 L 1127.210938 1127.210938 L 1082.839844 1127.210938 Z M 1171.582031 1082.839844 L 1260.324219 1082.839844 L 1260.324219 1127.210938 L 1171.582031 1127.210938 Z M 1304.695312 1082.839844 L 1393.4375 1082.839844 L 1393.4375 1127.210938 L 1304.695312 1127.210938 Z M 106.679688 1127.210938 L 151.050781 1127.210938 L 151.050781 1171.582031 L 106.679688 1171.582031 Z M 372.90625 1127.210938 L 417.273438 1127.210938 L 417.273438 1171.582031 L 372.90625 1171.582031 Z M 683.5 1127.210938 L 772.242188 1127.210938 L 772.242188 1171.582031 L 683.5 1171.582031 Z M 816.613281 1127.210938 L 1038.46875 1127.210938 L 1038.46875 1171.582031 L 816.613281 1171.582031 Z M 1171.582031 1127.210938 L 1260.324219 1127.210938 L 1260.324219 1171.582031 L 1171.582031 1171.582031 Z M 1304.695312 1127.210938 L 1393.4375 1127.210938 L 1393.4375 1171.582031 L 1304.695312 1171.582031 Z M 106.679688 1171.582031 L 151.050781 1171.582031 L 151.050781 1215.953125 L 106.679688 1215.953125 Z M 195.421875 1171.582031 L 328.535156 1171.582031 L 328.535156 1215.953125 L 195.421875 1215.953125 Z M 372.90625 1171.582031 L 417.273438 1171.582031 L 417.273438 1215.953125 L 372.90625 1215.953125 Z M 461.644531 1171.582031 L 639.128906 1171.582031 L 639.128906 1215.953125 L 461.644531 1215.953125 Z M 727.871094 1171.582031 L 772.242188 1171.582031 L 772.242188 1215.953125 L 727.871094 1215.953125 Z M 816.613281 1171.582031 L 905.355469 1171.582031 L 905.355469 1215.953125 L 816.613281 1215.953125 Z M 994.097656 1171.582031 L 1215.953125 1171.582031 L 1215.953125 1215.953125 L 994.097656 1215.953125 Z M 1304.695312 1171.582031 L 1393.4375 1171.582031 L 1393.4375 1215.953125 L 1304.695312 1215.953125 Z M 106.679688 1215.953125 L 151.050781 1215.953125 L 151.050781 1260.324219 L 106.679688 1260.324219 Z M 195.421875 1215.953125 L 328.535156 1215.953125 L 328.535156 1260.324219 L 195.421875 1260.324219 Z M 372.90625 1215.953125 L 417.273438 1215.953125 L 417.273438 1260.324219 L 372.90625 1260.324219 Z M 506.015625 1215.953125 L 594.757812 1215.953125 L 594.757812 1260.324219 L 506.015625 1260.324219 Z M 639.128906 1215.953125 L 683.5 1215.953125 L 683.5 1260.324219 L 639.128906 1260.324219 Z M 727.871094 1215.953125 L 772.242188 1215.953125 L 772.242188 1260.324219 L 727.871094 1260.324219 Z M 816.613281 1215.953125 L 860.984375 1215.953125 L 860.984375 1260.324219 L 816.613281 1260.324219 Z M 994.097656 1215.953125 L 1082.839844 1215.953125 L 1082.839844 1260.324219 L 994.097656 1260.324219 Z M 1127.210938 1215.953125 L 1215.953125 1215.953125 L 1215.953125 1260.324219 L 1127.210938 1260.324219 Z M 1260.324219 1215.953125 L 1393.4375 1215.953125 L 1393.4375 1260.324219 L 1260.324219 1260.324219 Z M 106.679688 1260.324219 L 151.050781 1260.324219 L 151.050781 1304.695312 L 106.679688 1304.695312 Z M 195.421875 1260.324219 L 328.535156 1260.324219 L 328.535156 1304.695312 L 195.421875 1304.695312 Z M 372.90625 1260.324219 L 417.273438 1260.324219 L 417.273438 1304.695312 L 372.90625 1304.695312 Z M 461.644531 1260.324219 L 506.015625 1260.324219 L 506.015625 1304.695312 L 461.644531 1304.695312 Z M 550.386719 1260.324219 L 639.128906 1260.324219 L 639.128906 1304.695312 L 550.386719 1304.695312 Z M 727.871094 1260.324219 L 772.242188 1260.324219 L 772.242188 1304.695312 L 727.871094 1304.695312 Z M 816.613281 1260.324219 L 860.984375 1260.324219 L 860.984375 1304.695312 L 816.613281 1304.695312 Z M 905.355469 1260.324219 L 949.726562 1260.324219 L 949.726562 1304.695312 L 905.355469 1304.695312 Z M 1127.210938 1260.324219 L 1260.324219 1260.324219 L 1260.324219 1304.695312 L 1127.210938 1304.695312 Z M 1349.066406 1260.324219 L 1393.4375 1260.324219 L 1393.4375 1304.695312 L 1349.066406 1304.695312 Z M 106.679688 1304.695312 L 151.050781 1304.695312 L 151.050781 1349.066406 L 106.679688 1349.066406 Z M 372.90625 1304.695312 L 417.273438 1304.695312 L 417.273438 1349.066406 L 372.90625 1349.066406 Z M 550.386719 1304.695312 L 594.757812 1304.695312 L 594.757812 1349.066406 L 550.386719 1349.066406 Z M 683.5 1304.695312 L 727.871094 1304.695312 L 727.871094 1349.066406 L 683.5 1349.066406 Z M 816.613281 1304.695312 L 1038.46875 1304.695312 L 1038.46875 1349.066406 L 816.613281 1349.066406 Z M 1082.839844 1304.695312 L 1127.210938 1304.695312 L 1127.210938 1349.066406 L 1082.839844 1349.066406 Z M 1171.582031 1304.695312 L 1215.953125 1304.695312 L 1215.953125 1349.066406 L 1171.582031 1349.066406 Z M 1304.695312 1304.695312 L 1349.066406 1304.695312 L 1349.066406 1349.066406 L 1304.695312 1349.066406 Z M 106.679688 1349.066406 L 417.273438 1349.066406 L 417.273438 1393.4375 L 106.679688 1393.4375 Z M 461.644531 1349.066406 L 550.386719 1349.066406 L 550.386719 1393.4375 L 461.644531 1393.4375 Z M 594.757812 1349.066406 L 639.128906 1349.066406 L 639.128906 1393.4375 L 594.757812 1393.4375 Z M 772.242188 1349.066406 L 905.355469 1349.066406 L 905.355469 1393.4375 L 772.242188 1393.4375 Z M 949.726562 1349.066406 L 1260.324219 1349.066406 L 1260.324219 1393.4375 L 949.726562 1393.4375 Z M 1304.695312 1349.066406 L 1393.4375 1349.066406 L 1393.4375 1393.4375 L 1304.695312 1393.4375 Z M 1304.695312 1349.066406 " fill-opacity="1" fill-rule="nonzero"/></svg>